<?xml version="1.0" encoding="UTF-8"?>
<svg version="1.1" xmlns="http://www.w3.org/2000/svg" width="1254" height="1254">
<path d="M0 0 C413.82 0 827.64 0 1254 0 C1254 413.82 1254 827.64 1254 1254 C840.18 1254 426.36 1254 0 1254 C0 840.18 0 426.36 0 0 Z " fill="#F9F9F9" transform="translate(0,0)"/>
<path d="M0 0 C0.66 0 1.32 0 2 0 C6.86925493 14.49725446 11.70570048 28.99936102 16.25976562 43.59936523 C16.71319336 45.03711304 16.71319336 45.03711304 17.17578125 46.50390625 C17.43270752 47.32705322 17.68963379 48.1502002 17.9543457 48.99829102 C19.17447206 52.50084848 20.5527058 55.92437712 21.94108582 59.36314392 C24.70537247 66.24663475 27.30349532 73.19578007 29.91796875 80.13720703 C30.6345883 82.03320903 31.35588411 83.9274507 32.08203125 85.81982422 C37.98692395 101.21817395 43.90859619 117.00236089 43.4375 133.75 C43.42283691 134.63067139 43.40817383 135.51134277 43.39306641 136.41870117 C42.64941233 162.33054574 31.16331012 182.30241578 13 200 C12.34 199.67 11.68 199.34 11 199 C11.35191406 198.41734375 11.70382812 197.8346875 12.06640625 197.234375 C13.11967254 195.48534795 14.16877435 193.73380965 15.21484375 191.98046875 C16.40312906 189.99652631 17.60365889 188.01986567 18.81640625 186.05078125 C29.82385714 167.86352437 33.49764333 146.8147713 29.3671875 125.77685547 C27.47266405 118.64135363 24.75690329 111.83764445 22 105 C21.14664974 102.78814777 20.29779901 100.57455508 19.453125 98.359375 C18.17481762 95.0133171 16.89233747 91.66943426 15.59033203 88.33251953 C12.07301166 79.31673336 8.9515917 70.21375247 6 61 C5.33602572 58.99910455 4.6703899 56.99875507 4 55 C3.67 56.258125 3.34 57.51625 3 58.8125 C-2.35590972 76.3343223 -11.14483715 92.59952798 -19.390625 108.88671875 C-19.71377686 109.52523773 -20.03692871 110.16375671 -20.36987305 110.82162476 C-21.66923858 113.3860529 -22.97292783 115.9477832 -24.29614258 118.5 C-26.33531819 122.461881 -27.91474997 126.35479377 -29.1875 130.625 C-29.51105469 131.68976563 -29.83460938 132.75453125 -30.16796875 133.8515625 C-34.85067714 151.57110691 -31.01393216 168.02150609 -22.87890625 183.9140625 C-21.4299133 186.2939054 -20.08495461 188.14164011 -18.27734375 190.2109375 C-16 193 -16 193 -16 196 C-25.57479037 192.7587929 -30.67214011 183.06910857 -35.23828125 174.5703125 C-43.55982876 157.70580158 -45.34399962 135.08598653 -39.63671875 117.04296875 C-36.71487473 109.46486165 -32.9815053 102.2093488 -29.3828125 94.9375 C-25.71642424 87.49733073 -22.31155253 79.95075964 -18.9375 72.375 C-18.66028107 71.7542157 -18.38306213 71.1334314 -18.09744263 70.49383545 C-16.38861384 66.66679681 -14.69234589 62.83434891 -13 59 C-12.68683838 58.30479248 -12.37367676 57.60958496 -12.05102539 56.89331055 C-4.2508341 39.33112913 -1.67351764 18.98039258 0 0 Z " fill="#471470" transform="translate(628,491)"/>
<path d="M0 0 C0.66 0 1.32 0 2 0 C5.44405326 8.83474532 6.18217863 16.14231935 6.1875 25.625 C6.19974609 26.75035156 6.21199219 27.87570312 6.22460938 29.03515625 C6.23710788 36.24262507 5.56619355 42.96322105 4 50 C4.9429895 50.029729 4.9429895 50.029729 5.9050293 50.06005859 C48.71636189 51.47757459 48.71636189 51.47757459 63 61 C63.28021324 63.54475846 63.37227294 65.84290099 63.328125 68.38671875 C63.32625183 69.12195267 63.32437866 69.85718658 63.32244873 70.61470032 C63.31571882 72.1740877 63.30178567 73.73345793 63.28125 75.29272461 C63.25034832 77.66080715 63.24030245 80.02822098 63.234375 82.39648438 C63.22519361 83.91407048 63.21481425 85.43164989 63.203125 86.94921875 C63.19887512 87.65052414 63.19462524 88.35182953 63.19024658 89.0743866 C63.12741861 93.48014885 62.70525815 97.6628037 62 102 C61.01 101.67 60.02 101.34 59 101 C57.7861639 90.33558287 57.90468807 79.71729679 58 69 C56.97797485 69.39396973 56.97797485 69.39396973 55.93530273 69.79589844 C47.43064758 72.8730874 39.00338447 74.26400325 30.0625 75.25 C29.32954712 75.33438324 28.59659424 75.41876648 27.84143066 75.50570679 C3.95871742 78.22076633 -20.54386754 78.53255876 -44.125 73.5 C-45.22070312 73.27441406 -46.31640625 73.04882812 -47.4453125 72.81640625 C-51.64919118 71.94575 -55.84142318 71.0686164 -60 70 C-60.04898438 70.94101562 -60.09796875 71.88203125 -60.1484375 72.8515625 C-60.22320313 74.09679687 -60.29796875 75.34203125 -60.375 76.625 C-60.44460938 77.85476563 -60.51421875 79.08453125 -60.5859375 80.3515625 C-60.9814487 83.83653855 -61.76261849 86.73049601 -63 90 C-63.66 90 -64.32 90 -65 90 C-66.64171637 83.68475676 -67.39096763 77.70720141 -67.4375 71.1875 C-67.47037109 70.35541016 -67.50324219 69.52332031 -67.53710938 68.66601562 C-67.57216178 64.69234807 -67.58901508 62.70544829 -64.984375 59.5859375 C-61.36204128 57.66098005 -57.76831589 56.43741336 -53.8125 55.4375 C-52.99950439 55.22843018 -52.18650879 55.01936035 -51.34887695 54.80395508 C-35.73681018 51.04083797 -19.05616708 49.21178816 -3 50 C-3.14002441 49.42749512 -3.28004883 48.85499023 -3.42431641 48.26513672 C-5.01445046 41.18053414 -5.36652566 34.37055845 -5.375 27.125 C-5.39949219 26.03058594 -5.42398438 24.93617188 -5.44921875 23.80859375 C-5.47959581 15.25238747 -3.84412183 7.68824367 0 0 Z " fill="#3E1472" transform="translate(627,655)"/>
<path d="M0 0 C1.23849701 -0.00151062 1.23849701 -0.00151062 2.50201416 -0.00305176 C22.64608053 0.01344744 42.27424249 1.5760244 61.6875 7.25 C62.76644531 7.53488281 63.84539062 7.81976563 64.95703125 8.11328125 C68.55896873 9.08319798 72.12655392 10.14105774 75.6875 11.25 C76.48446289 11.49669434 77.28142578 11.74338867 78.10253906 11.99755859 C101.31652227 19.31078404 123.44110178 29.71328264 143.6875 43.25 C144.31398438 43.66846191 144.94046875 44.08692383 145.5859375 44.51806641 C199.39877588 80.88998222 236.00789078 137.28180878 250.6875 200.25 C250.98269531 201.4771875 251.27789063 202.704375 251.58203125 203.96875 C255.50700846 221.13810843 255.95060072 237.7190255 255.8125 255.25 C255.80244395 257.4895793 255.79332277 259.72916301 255.78515625 261.96875 C255.76336508 267.39593115 255.7300981 272.82294431 255.6875 278.25 C254.6975 278.58 253.7075 278.91 252.6875 279.25 C252.69797363 278.00089844 252.70844727 276.75179688 252.71923828 275.46484375 C252.75591502 270.7532853 252.77857076 266.04173898 252.79736328 261.33007812 C252.80731376 259.30531683 252.82087897 257.28056949 252.83837891 255.25585938 C252.98439102 237.90618502 251.64277334 221.88640692 247.625 204.9375 C247.32190918 203.65568848 247.01881836 202.37387695 246.70654297 201.05322266 C231.26251818 137.10207524 193.21497459 79.85606154 137.02978516 44.65966797 C119.33780587 34.01202482 101.28824768 25.13018904 81.62548828 18.86914062 C78.30963915 17.80980661 75.00381689 16.71950492 71.72509766 15.55004883 C65.61682475 13.41657959 59.46017969 11.97937978 53.125 10.6875 C52.06869385 10.47061523 51.0123877 10.25373047 49.92407227 10.03027344 C18.69272635 3.75974043 -13.01296985 3.68321347 -44.3125 9.25 C-45.65102848 9.4792437 -46.98956954 9.70841389 -48.328125 9.9375 C-52.33560029 10.65138224 -56.32707785 11.42327489 -60.3125 12.25 C-61.52292969 12.50088379 -61.52292969 12.50088379 -62.7578125 12.75683594 C-75.48885304 15.4540088 -87.37263686 19.08563197 -99.3125 24.25 C-100.18551758 24.62286133 -101.05853516 24.99572266 -101.95800781 25.37988281 C-130.61397346 37.70144264 -156.77962342 54.61371228 -179.3125 76.25 C-179.87614258 76.78641113 -180.43978516 77.32282227 -181.02050781 77.87548828 C-189.06207874 85.56404712 -196.33394396 93.53058737 -202.97705078 102.45703125 C-204.34532873 104.29407572 -205.73235529 106.11588931 -207.12109375 107.9375 C-213.4843682 116.3606136 -219.14134391 125.04916242 -224.3125 134.25 C-224.68616699 134.91225586 -225.05983398 135.57451172 -225.44482422 136.25683594 C-240.17701276 162.60515096 -249.98442742 191.36431166 -254.3125 221.25 C-254.48458984 222.34135254 -254.65667969 223.43270508 -254.83398438 224.55712891 C-256.50271371 236.14241499 -256.54367428 247.56281654 -256.4375 259.25 C-256.4274391 261.20051618 -256.41831881 263.15103745 -256.41015625 265.1015625 C-256.38841449 269.81783709 -256.35406034 274.53386014 -256.3125 279.25 C-257.3025 278.92 -258.2925 278.59 -259.3125 278.25 C-268.93630418 254.31931762 -257.78322971 212.45755904 -251.3125 189.25 C-251.06064941 188.33863281 -250.80879883 187.42726563 -250.54931641 186.48828125 C-248.92995819 180.69957737 -247.17771989 174.96396645 -245.3125 169.25 C-245.0969043 168.57775391 -244.88130859 167.90550781 -244.65917969 167.21289062 C-223.92898127 103.71670683 -171.48637696 54.47606062 -113.48925781 24.80810547 C-105.96085469 21.11564707 -98.1847899 18.11628192 -90.3125 15.25 C-88.66701172 14.62544922 -88.66701172 14.62544922 -86.98828125 13.98828125 C-84.44180816 13.03290989 -81.88781394 12.12414982 -79.3125 11.25 C-78.54808594 10.98703125 -77.78367187 10.7240625 -76.99609375 10.453125 C-71.11481381 8.55406261 -65.13773095 7.39622459 -59.06469727 6.30664062 C-55.697393 5.70232442 -52.3677793 5.07259571 -49.0625 4.1875 C-33.0000597 0.17188993 -16.46356011 0.01408948 0 0 Z " fill="#441978" transform="translate(627.3125,441.75)"/>
<path d="M0 0 C0.495 4.455 0.495 4.455 1 9 C1.66 9 2.32 9 3 9 C3.66 6.03 4.32 3.06 5 0 C13.47442787 -0.24000403 21.51212429 0.39910263 29.875 1.75 C31.57148682 2.01635254 31.57148682 2.01635254 33.30224609 2.28808594 C41.41323022 3.61332642 49.21070121 5.33747605 57 8 C57 8.66 57 9.32 57 10 C39.4700946 14.24110615 22.7401944 16.17649946 4.74658203 16.13037109 C2.24115025 16.12498096 -0.26410468 16.13036104 -2.76953125 16.13671875 C-4.38281289 16.13605837 -5.99609442 16.13477805 -7.609375 16.1328125 C-8.34806824 16.13483673 -9.08676147 16.13686096 -9.84783936 16.13894653 C-14.32141502 16.11893697 -18.56883638 15.68641031 -23 15 C-24.4359673 14.91147103 -25.87401098 14.84848452 -27.3125 14.82421875 C-37.78933689 14.52945691 -46.9984415 13.21425273 -57 10 C-57 9.34 -57 8.68 -57 8 C-54.85518747 7.37150586 -52.70908965 6.74739742 -50.5625 6.125 C-49.36753906 5.77695312 -48.17257812 5.42890625 -46.94140625 5.0703125 C-39.44977128 2.98851062 -32.05329514 1.61330146 -24.3125 0.875 C-23.44979492 0.79008301 -22.58708984 0.70516602 -21.69824219 0.61767578 C-14.44555481 -0.05107851 -7.28403661 -0.21707394 0 0 Z " fill="#F3F1F6" transform="translate(625,710)"/>
<path d="M0 0 C0.66 0 1.32 0 2 0 C2.47050781 1.22976563 2.94101562 2.45953125 3.42578125 3.7265625 C4.0545311 5.35943523 4.68344609 6.99224438 5.3125 8.625 C5.7755957 9.83736328 5.7755957 9.83736328 6.24804688 11.07421875 C7.59042309 14.55026664 8.95699835 17.91399669 10.625 21.25 C17.73302352 35.46604704 16.05923461 50.98219663 11.38671875 65.55078125 C9.54065128 70.14254906 9.54065128 70.14254906 7 72 C6.67 72 6.34 72 6 72 C5.98541748 71.43192627 5.97083496 70.86385254 5.95581055 70.27856445 C5.63844757 59.18431747 5.15818823 48.70605946 2 38 C1.34 38 0.68 38 0 38 C-0.4803318 39.58298026 -0.95921612 41.16639978 -1.4375 42.75 C-1.70433594 43.63171875 -1.97117187 44.5134375 -2.24609375 45.421875 C-3.32488979 49.11102208 -4.12394587 52.47891746 -4.31640625 56.328125 C-4.35830078 57.12734375 -4.40019531 57.9265625 -4.44335938 58.75 C-4.48267578 59.575 -4.52199219 60.4 -4.5625 61.25 C-4.60568359 62.09046875 -4.64886719 62.9309375 -4.69335938 63.796875 C-4.79908543 65.86440671 -4.90001295 67.93218281 -5 70 C-5.33 70 -5.66 70 -6 70 C-6.495 67.03 -6.495 67.03 -7 64 C-7.99 64 -8.98 64 -10 64 C-12.36738702 57.195692 -13.58142679 51.01752154 -13.5625 43.8125 C-13.5615332 42.90411377 -13.56056641 41.99572754 -13.55957031 41.05981445 C-13.33551669 32.35164798 -10.96561549 25.71687339 -7 18 C-6.60941406 17.2265625 -6.21882812 16.453125 -5.81640625 15.65625 C-5.17883218 14.40591019 -4.53382969 13.159309 -3.87890625 11.91796875 C-2.13238546 8.10667227 -1.09235205 4.03839242 0 0 Z " fill="#FCC884" transform="translate(627,617)"/>
<path d="M0 0 C2.47538532 2.18378681 3.50097045 3.84133026 4.3515625 7.01953125 C4.66867187 8.18258789 4.66867187 8.18258789 4.9921875 9.36914062 C5.20101562 10.17544922 5.40984375 10.98175781 5.625 11.8125 C5.8415625 12.60720703 6.058125 13.40191406 6.28125 14.22070312 C12.52296511 37.51154748 9.03924633 62.37107178 -2.8125 83.375 C-7.7745444 91.11110071 -14.44493767 97.61301619 -21 104 C-21.66 103.67 -22.32 103.34 -23 103 C-22.47212891 102.12601563 -22.47212891 102.12601563 -21.93359375 101.234375 C-20.88032746 99.48534795 -19.83122565 97.73380965 -18.78515625 95.98046875 C-17.59687094 93.99652631 -16.39634111 92.01986567 -15.18359375 90.05078125 C-11.27632928 83.59493391 -8.09202153 77.267544 -6 70 C-5.82267334 69.38987061 -5.64534668 68.77974121 -5.46264648 68.15112305 C-3.66345021 61.19855461 -3.66840008 54.3346896 -3.6875 47.1875 C-3.66333008 45.39602539 -3.66333008 45.39602539 -3.63867188 43.56835938 C-3.63479863 36.4532148 -4.39230394 30.23972976 -6.45239258 23.41918945 C-7 21 -7 21 -6 18 C-6.515625 17.21625 -7.03125 16.4325 -7.5625 15.625 C-9 13 -9 13 -8.5 10.5625 C-6.6040849 7.32364504 -4.56126813 4.75336324 -2 2 C-1.34 2 -0.68 2 0 2 C0 1.34 0 0.68 0 0 Z " fill="#561B6A" transform="translate(662,587)"/>
<path d="M0 0 C0.495 0.99 0.495 0.99 1 2 C-1.31 2.33 -3.62 2.66 -6 3 C-6 3.33 -6 3.66 -6 4 C-3.69 4.33 -1.38 4.66 1 5 C1 5.33 1 5.66 1 6 C0.05906494 6.06993164 -0.88187012 6.13986328 -1.85131836 6.21191406 C-26.17537659 8.01228534 -26.17537659 8.01228534 -50 13 C-51.9953906 13.35989922 -53.99440142 13.702199 -56 14 C-56 14.66 -56 15.32 -56 16 C-55.41992188 16.04898438 -54.83984375 16.09796875 -54.2421875 16.1484375 C-53.46101562 16.22320313 -52.67984375 16.29796875 -51.875 16.375 C-51.10929688 16.44460938 -50.34359375 16.51421875 -49.5546875 16.5859375 C-47 17 -47 17 -44.28515625 18.00390625 C-40.02067196 19.29694251 -35.99521688 19.42040352 -31.5625 19.5625 C-29.91785212 19.62322148 -28.27331312 19.68697508 -26.62890625 19.75390625 C-25.90775635 19.77783447 -25.18660645 19.8017627 -24.44360352 19.82641602 C-22.50441678 19.96416822 -20.573045 20.21110032 -18.64990234 20.49560547 C-15.06570562 20.99091988 -11.58766111 21.20393943 -7.97265625 21.31640625 C-6.68681641 21.35830078 -5.40097656 21.40019531 -4.07617188 21.44335938 C-2.73828375 21.483157 -1.40039309 21.52286951 -0.0625 21.5625 C1.30274562 21.60576654 2.66798018 21.64938321 4.03320312 21.69335938 C7.35537652 21.79901153 10.67761946 21.90111395 14 22 C12.68 22.66 11.36 23.32 10 24 C10 24.66 10 25.32 10 26 C11.65 26.33 13.3 26.66 15 27 C15 27.33 15 27.66 15 28 C11.1263124 28.02519409 7.25265815 28.04308675 3.37890625 28.05493164 C1.43227455 28.06228369 -0.51433456 28.07500578 -2.4609375 28.08789062 C-15.65346675 28.12154504 -28.21240919 27.25573584 -41.125 24.5 C-42.22070312 24.27441406 -43.31640625 24.04882812 -44.4453125 23.81640625 C-48.64919118 22.94575 -52.84142318 22.0686164 -57 21 C-57.04898438 21.94101562 -57.09796875 22.88203125 -57.1484375 23.8515625 C-57.22320313 25.09679687 -57.29796875 26.34203125 -57.375 27.625 C-57.44460938 28.85476563 -57.51421875 30.08453125 -57.5859375 31.3515625 C-57.9814487 34.83653855 -58.76261849 37.73049601 -60 41 C-60.66 41 -61.32 41 -62 41 C-63.64171637 34.68475676 -64.39096763 28.70720141 -64.4375 22.1875 C-64.48680664 20.93936523 -64.48680664 20.93936523 -64.53710938 19.66601562 C-64.57216178 15.69234807 -64.58901508 13.70544829 -61.984375 10.5859375 C-58.36196821 8.66094122 -54.76824771 7.43781362 -50.8125 6.4375 C-49.59300659 6.12280762 -49.59300659 6.12280762 -48.34887695 5.80175781 C-32.64382246 2.00599192 -16.10657962 0.84925602 0 0 Z " fill="#461979" transform="translate(624,704)"/>
<path d="M0 0 C0.99 0.33 1.98 0.66 3 1 C3.12117188 2.01320313 3.24234375 3.02640625 3.3671875 4.0703125 C3.53613783 5.4219151 3.70542669 6.77347542 3.875 8.125 C3.95363281 8.79015625 4.03226562 9.4553125 4.11328125 10.140625 C4.64327527 14.2990396 5.18389662 18.2037216 7 22 C9.35365262 23.33492775 9.35365262 23.33492775 12.1875 23.8125 C13.1671875 24.03164063 14.146875 24.25078125 15.15625 24.4765625 C18.43768198 25.08056234 21.68357005 25.63150778 25 26 C25 26.66 25 27.32 25 28 C24.20335937 28.17015625 23.40671875 28.3403125 22.5859375 28.515625 C14.12345197 30.381243 14.12345197 30.381243 7 35 C5.09641033 38.95634122 4.25604667 43.02740939 3.375 47.3125 C3.11460937 48.56675781 2.85421875 49.82101562 2.5859375 51.11328125 C2.39257812 52.06589844 2.19921875 53.01851562 2 54 C1.34 54 0.68 54 0 54 C-0.10957031 53.13117187 -0.21914063 52.26234375 -0.33203125 51.3671875 C-1.52852598 40.98377597 -1.52852598 40.98377597 -7.5 32.8125 C-12.15520923 30.40176665 -16.91482061 29.19438377 -22 28 C-22 27.34 -22 26.68 -22 26 C-21.10796875 25.80664062 -20.2159375 25.61328125 -19.296875 25.4140625 C-18.12640625 25.15367187 -16.9559375 24.89328125 -15.75 24.625 C-14.58984375 24.36976563 -13.4296875 24.11453125 -12.234375 23.8515625 C-8.21174627 22.7924646 -5.94252271 22.1841952 -3.32421875 18.89453125 C-1.62005207 15.16949434 -1.2067166 11.73454931 -0.8125 7.6875 C-0.73064453 6.94693359 -0.64878906 6.20636719 -0.56445312 5.44335938 C-0.36557412 3.63005077 -0.18130173 1.81515031 0 0 Z " fill="#4C277B" transform="translate(490,600)"/>
<path d="M0 0 C7.51155581 11.26733372 10.47231678 26.90308766 13.375 39.9375 C13.6131543 41.00033203 13.85130859 42.06316406 14.09667969 43.15820312 C17.72910215 60.23530612 18.2620472 76.60276307 18.125 94 C18.11494395 96.2395793 18.10582277 98.47916301 18.09765625 100.71875 C18.07586508 106.14593115 18.0425981 111.57294431 18 117 C16.515 117.495 16.515 117.495 15 118 C15.01047363 116.75089844 15.02094727 115.50179687 15.03173828 114.21484375 C15.06841502 109.5032853 15.09107076 104.79173898 15.10986328 100.08007812 C15.11981376 98.05531683 15.13337897 96.03056949 15.15087891 94.00585938 C15.29756942 76.57557532 13.92136859 60.52556669 9.875 43.5 C9.57585693 42.22350586 9.27671387 40.94701172 8.96850586 39.63183594 C6.22701935 28.16981903 2.62790215 17.03422884 -1.37670898 5.95410156 C-2 4 -2 4 -2 2 C-1.34 2 -0.68 2 0 2 C0 1.34 0 0.68 0 0 Z " fill="#522E85" transform="translate(865,603)"/>
<path d="M0 0 C1.23849701 -0.00151062 1.23849701 -0.00151062 2.50201416 -0.00305176 C22.68619981 0.0134803 42.21397077 1.6861345 61.6875 7.25 C64.01875436 7.84158713 66.35195242 8.42559619 68.6875 9 C70.35416667 9.41666667 72.02083333 9.83333333 73.6875 10.25 C72.6975 10.58 71.7075 10.91 70.6875 11.25 C71.1825 13.23 71.1825 13.23 71.6875 15.25 C70.70652344 14.99605469 69.72554687 14.74210937 68.71484375 14.48046875 C49.15252494 9.46762455 29.83987477 6.35027334 9.6875 5.25 C10.6775 4.26 11.6675 3.27 12.6875 2.25 C-2.4925 2.25 -17.6725 2.25 -33.3125 2.25 C-33.3125 1.92 -33.3125 1.59 -33.3125 1.25 C-22.20029692 0.36538511 -11.14539291 0.00953821 0 0 Z " fill="#542E86" transform="translate(627.3125,441.75)"/>
<path d="M0 0 C0.66 0 1.32 0 2 0 C1.59719193 5.03510091 0.61382507 9.58799476 -0.8125 14.4375 C-9.64065779 44.6643446 -10.42872043 73.71000457 -10 105 C-10.99 104.67 -11.98 104.34 -13 104 C-24.38270194 75.6956185 -9.84663143 26.79503687 0 0 Z " fill="#391D75" transform="translate(381,616)"/>
<path d="M0 0 C0.33 0 0.66 0 1 0 C1.16821105 2.5832412 1.33462517 5.16657699 1.5 7.75 C1.54769531 8.47960937 1.59539063 9.20921875 1.64453125 9.9609375 C2.12132121 17.45335119 2.11711593 24.74131681 0 32 C1.32 32.33 2.64 32.66 4 33 C-0.15240608 42.88167522 -5.48852673 49.46665927 -13 57 C-13.47937012 57.48098145 -13.95874023 57.96196289 -14.45263672 58.45751953 C-15.63303051 59.64040624 -16.81622038 60.82050168 -18 62 C-18.66 61.67 -19.32 61.34 -20 61 C-19.47212891 60.12601563 -19.47212891 60.12601563 -18.93359375 59.234375 C-17.88032746 57.48534795 -16.83122565 55.73380965 -15.78515625 53.98046875 C-14.59687094 51.99652631 -13.39634111 50.01986567 -12.18359375 48.05078125 C-4.65929697 35.61862782 -0.91410673 23.41476197 -0.375 8.9375 C-0.33632813 8.07189453 -0.29765625 7.20628906 -0.2578125 6.31445312 C-0.16479519 4.20993641 -0.08137331 2.1049991 0 0 Z " fill="#C66547" transform="translate(659,629)"/>
<path d="M0 0 C1.98 0.66 3.96 1.32 6 2 C6 2.66 6 3.32 6 4 C6.928125 3.7215625 6.928125 3.7215625 7.875 3.4375 C10 3 10 3 12 4 C12.58303996 10.41343955 11.46508228 15.75667439 9.6875 21.875 C9.36809448 22.99926392 9.36809448 22.99926392 9.04223633 24.14624023 C7.90972854 27.87529103 6.9632885 30.45191503 4 33 C3.67 33 3.34 33 3 33 C2.98018066 32.42668945 2.96036133 31.85337891 2.93994141 31.26269531 C2.38226503 15.53370678 2.38226503 15.53370678 0 0 Z " fill="#F1E1B7" transform="translate(630,656)"/>
<path d="M0 0 C0.99 0.33 1.98 0.66 3 1 C2.95875 1.845625 2.9175 2.69125 2.875 3.5625 C3.01308815 7.35992403 3.82027042 10.39527073 5 14 C5.309375 14.94875 5.61875 15.8975 5.9375 16.875 C6.288125 17.57625 6.63875 18.2775 7 19 C7.99 19.33 8.98 19.66 10 20 C9.649375 18.96875 9.29875 17.9375 8.9375 16.875 C8.00486377 13.0201036 8.07359079 10.79827774 9 7 C9.33 7 9.66 7 10 7 C10.20753906 7.99257813 10.41507813 8.98515625 10.62890625 10.0078125 C13.03945821 20.87481222 16.24792177 31.65409106 23.72265625 40.2109375 C26 43 26 43 26 46 C15.32278251 42.38560513 9.73268511 30.57030781 5 21 C2.1088298 14.06785704 0.49892118 7.48381776 0 0 Z " fill="#B5735F" transform="translate(586,641)"/>
<path d="M0 0 C2 3 2 3 1.76391602 4.91772461 C0.93406672 7.17972034 -0.06379516 9.20332467 -1.22265625 11.31640625 C-1.90146851 12.57300049 -1.90146851 12.57300049 -2.59399414 13.85498047 C-3.07860107 14.74846191 -3.56320801 15.64194336 -4.0625 16.5625 C-7.87603284 23.7134194 -11.43099091 30.89851274 -14.5625 38.375 C-14.88420166 39.14013916 -15.20590332 39.90527832 -15.53735352 40.69360352 C-17.33262611 45.07197424 -18.78706618 49.42585156 -20 54 C-20.495 52.515 -20.495 52.515 -21 51 C-21.66 51 -22.32 51 -23 51 C-19.87833595 32.8188797 -9.1214353 15.73338482 0 0 Z " fill="#411674" transform="translate(404,565)"/>
<path d="M0 0 C0.66 0 1.32 0 2 0 C2.12117187 0.68707031 2.24234375 1.37414062 2.3671875 2.08203125 C2.53476562 2.98308594 2.70234375 3.88414062 2.875 4.8125 C3.11863281 6.15248047 3.11863281 6.15248047 3.3671875 7.51953125 C3.91188449 10.22727846 3.91188449 10.22727846 6 13 C7.95385067 13.78988145 7.95385067 13.78988145 10.125 14.1875 C11.40375 14.455625 12.6825 14.72375 14 15 C11.61077708 16.19461146 9.43692785 17.18018309 6.875 18 C3.45657854 20.37803232 3.40441044 21.24034283 2.625 25.1875 C2.39142351 26.78818595 2.17499514 28.39185505 2 30 C1.34 30 0.68 30 0 30 C-0.07476563 29.31292969 -0.14953125 28.62585938 -0.2265625 27.91796875 C-0.62874808 25.1618146 -1.10200738 22.63865131 -2 20 C-5.45130521 17.46904285 -8.79676519 16.61812277 -13 16 C-13 15.67 -13 15.34 -13 15 C-11.95199219 14.74476563 -11.95199219 14.74476563 -10.8828125 14.484375 C-9.51769531 14.12085938 -9.51769531 14.12085938 -8.125 13.75 C-7.22007812 13.51796875 -6.31515625 13.2859375 -5.3828125 13.046875 C-2.90493897 12.20569207 -2.90493897 12.20569207 -1.71875 10.15625 C-0.99419536 7.98258607 -0.60274174 6.02741736 -0.375 3.75 C-0.25125 2.5125 -0.1275 1.275 0 0 Z " fill="#4E2D89" transform="translate(748,650)"/>
<path d="M0 0 C1.29292969 -0.00257813 2.58585938 -0.00515625 3.91796875 -0.0078125 C7.8125 0.125 7.8125 0.125 11.11669922 0.61352539 C14.71735972 1.11183321 18.20828992 1.32842458 21.83984375 1.44140625 C23.12568359 1.48330078 24.41152344 1.52519531 25.73632812 1.56835938 C27.07421625 1.608157 28.41210691 1.64786951 29.75 1.6875 C31.11524562 1.73076654 32.48048018 1.77438321 33.84570312 1.81835938 C37.16787652 1.92401153 40.49011946 2.02611395 43.8125 2.125 C41.8325 3.115 41.8325 3.115 39.8125 4.125 C39.8125 4.785 39.8125 5.445 39.8125 6.125 C42.2875 6.62 42.2875 6.62 44.8125 7.125 C44.8125 7.455 44.8125 7.785 44.8125 8.125 C40.9388124 8.15019409 37.06515815 8.16808675 33.19140625 8.17993164 C31.24477455 8.18728369 29.29816544 8.20000578 27.3515625 8.21289062 C18.78134633 8.23475342 10.34992494 7.85807802 1.8125 7.125 C1.8125 6.795 1.8125 6.465 1.8125 6.125 C2.43898438 6.07601562 3.06546875 6.02703125 3.7109375 5.9765625 C4.52820313 5.90179687 5.34546875 5.82703125 6.1875 5.75 C6.99960937 5.68039062 7.81171875 5.61078125 8.6484375 5.5390625 C11.01584191 5.29607412 11.01584191 5.29607412 12.8125 3.125 C7.76247778 2.08909801 2.93833611 2.02248328 -2.1875 2.125 C-2.1875 2.455 -2.1875 2.785 -2.1875 3.125 C-4.4975 3.125 -6.8075 3.125 -9.1875 3.125 C-9.1875 2.465 -9.1875 1.805 -9.1875 1.125 C-6.16752674 -0.38498663 -3.35707841 -0.00662799 0 0 Z " fill="#613990" transform="translate(594.1875,723.875)"/>
<path d="M0 0 C1.60872253 0.00503589 3.21744663 0.00959502 4.82617188 0.01367188 C8.69665461 0.02448719 12.56705896 0.04163076 16.4375 0.0625 C12.76571449 3.70918661 8.76155583 3.62028172 3.8671875 3.79296875 C3.03091827 3.833116 2.19464905 3.87326324 1.33303833 3.91462708 C-1.34006846 4.03949194 -4.01355756 4.14472857 -6.6875 4.25 C-8.46359846 4.33145309 -10.23964158 4.41412282 -12.015625 4.49804688 C-16.16140622 4.68906212 -20.30736072 4.84980196 -24.4552002 4.9887085 C-26.29187689 5.05302357 -28.12796475 5.13373921 -29.96386719 5.21728516 C-32.6796875 5.30078125 -32.6796875 5.30078125 -36.5625 5.0625 C-37.2225 4.0725 -37.8825 3.0825 -38.5625 2.0625 C-35.04367018 0.88955673 -31.70609908 0.70440503 -28.03515625 0.50390625 C-27.28613541 0.46165421 -26.53711456 0.41940216 -25.76539612 0.37586975 C-17.17730526 -0.06716646 -8.59679775 -0.04781512 0 0 Z " fill="#360D72" transform="translate(628.5625,442.9375)"/>
<path d="M0 0 C2 4 2 4 2.6875 6.0625 C4.76345377 9.12700319 7.57424329 9.73120122 11 11 C10.01 11.66 9.02 12.32 8 13 C3.57111963 16.78075153 2.19140484 19.47621391 1 25 C-1 22 -1 22 -2.25 18.5 C-4.2886059 14.42278819 -5.81927065 13.57938665 -10 12 C-8 10 -8 10 -5.5625 8.8125 C-2.04358286 6.32350983 -1.43929772 4.01488312 0 0 Z " fill="#EFEBF3" transform="translate(491,616)"/>
<path d="M0 0 C4.72173269 0.69869876 9.27775349 1.80182097 13.875 3.0625 C14.56335938 3.24876953 15.25171875 3.43503906 15.9609375 3.62695312 C17.64132514 4.08205811 19.32076322 4.54066678 21 5 C21.33 6.65 21.66 8.3 22 10 C19.43175571 11.28412215 18.61891065 10.80509981 15.89453125 10.0390625 C15.07533203 9.81476562 14.25613281 9.59046875 13.41210938 9.359375 C12.12530273 8.99585938 12.12530273 8.99585938 10.8125 8.625 C5.21144806 7.05791091 -0.21628178 5.6730714 -6 5 C-6 4.67 -6 4.34 -6 4 C-3.69 3.34 -1.38 2.68 1 2 C0.67 1.34 0.34 0.68 0 0 Z " fill="#411673" transform="translate(663,708)"/>
<path d="M0 0 C3.66646817 3.66646817 3.05540312 9.25354046 3.11352539 14.20092773 C3.11336856 16.19515675 3.10780867 18.18939057 3.09765625 20.18359375 C3.0962413 21.23909927 3.09482635 22.2946048 3.09336853 23.38209534 C3.08779722 26.73392643 3.07525002 30.08568929 3.0625 33.4375 C3.05748129 35.71809799 3.05291903 37.99869703 3.04882812 40.27929688 C3.0378372 45.85288763 3.02112776 51.42643894 3 57 C1.515 57.495 1.515 57.495 0 58 C0 38.86 0 19.72 0 0 Z " fill="#28146B" transform="translate(880,663)"/>
<path d="M0 0 C0.33 0 0.66 0 1 0 C2.17172466 3.98386386 3.218342 7.92270288 4 12 C9.98044406 13.71951285 15.80759538 15.31195504 22 16 C22 16.66 22 17.32 22 18 C21.16855469 18.20496094 20.33710937 18.40992188 19.48046875 18.62109375 C18.39378906 18.89050781 17.30710937 19.15992188 16.1875 19.4375 C15.10855469 19.70433594 14.02960938 19.97117187 12.91796875 20.24609375 C10.9259157 20.76077412 8.95188476 21.34937175 7 22 C7 21.34 7 20.68 7 20 C6.01 19.67 5.02 19.34 4 19 C4.66 18.34 5.32 17.68 6 17 C5.236875 16.608125 4.47375 16.21625 3.6875 15.8125 C0.11068559 13.40022982 -1.36573569 10.84993756 -2.75 6.8125 C-3 5 -3 5 -2 3 C-1.34 3 -0.68 3 0 3 C0 2.01 0 1.02 0 0 Z " fill="#4C2183" transform="translate(493,610)"/>
<path d="M0 0 C0 0.33 0 0.66 0 1 C-1.65 1.33 -3.3 1.66 -5 2 C-4.34 2.66 -3.68 3.32 -3 4 C-6.69540402 5.23180134 -10.10303378 5.12412112 -13.94921875 5.09765625 C-14.72183548 5.0962413 -15.49445221 5.09482635 -16.29048157 5.09336853 C-18.75619389 5.08777466 -21.22181515 5.07522333 -23.6875 5.0625 C-25.36002473 5.05748421 -27.03255088 5.05292144 -28.70507812 5.04882812 C-32.80342046 5.03780724 -36.90169479 5.02054684 -41 5 C-41 4.67 -41 4.34 -41 4 C-34.4 4 -27.8 4 -21 4 C-21 3.34 -21 2.68 -21 2 C-27.93 2 -34.86 2 -42 2 C-42 1.67 -42 1.34 -42 1 C-27.99358774 0.36511019 -14.0220641 -0.17358814 0 0 Z " fill="#32086B" transform="translate(655,726)"/>
<path d="M0 0 C-0.33 0.66 -0.66 1.32 -1 2 C-3.68054109 2.65218522 -6.28392154 3.17912354 -9 3.625 C-9.7736792 3.75471191 -10.5473584 3.88442383 -11.34448242 4.01806641 C-25.18778405 6.23776571 -25.18778405 6.23776571 -29.23046875 3.4765625 C-29.81441406 2.98929687 -30.39835938 2.50203125 -31 2 C-28.31339217 1.35025795 -25.62581326 0.70511582 -22.9375 0.0625 C-22.18533203 -0.11990234 -21.43316406 -0.30230469 -20.65820312 -0.49023438 C-5.97820724 -3.98547149 -5.97820724 -3.98547149 0 0 Z " fill="#4A1F80" transform="translate(596,447)"/>
<path d="M0 0 C-0.66 0 -1.32 0 -2 0 C-2 0.66 -2 1.32 -2 2 C-4.31 2.66 -6.62 3.32 -9 4 C-9.02684312 6.81256281 -9.04676188 9.62487241 -9.0625 12.4375 C-9.07087891 13.23994141 -9.07925781 14.04238281 -9.08789062 14.86914062 C-9.0965143 16.91295221 -9.0522815 18.95683902 -9 21 C-8.67 21.33 -8.34 21.66 -8 22 C-7.67 18.37 -7.34 14.74 -7 11 C-6.67 11 -6.34 11 -6 11 C-5.9456035 13.37531394 -5.90614136 15.74935883 -5.875 18.125 C-5.85824219 18.79015625 -5.84148438 19.4553125 -5.82421875 20.140625 C-5.78152722 24.49516056 -6.40003783 27.95600114 -8 32 C-8.66 32 -9.32 32 -10 32 C-11.64171637 25.68475676 -12.39096763 19.70720141 -12.4375 13.1875 C-12.47037109 12.35541016 -12.50324219 11.52332031 -12.53710938 10.66601562 C-12.5903216 4.63368412 -12.5903216 4.63368412 -9.66015625 1.48828125 C-5.95774799 -0.58311015 -4.02359299 -1.24870127 0 0 Z " fill="#583084" transform="translate(572,713)"/>
<path d="M0 0 C0.66 0.33 1.32 0.66 2 1 C2 2.32 2 3.64 2 5 C-0.08984375 6.7109375 -0.08984375 6.7109375 -2.9375 8.375 C-3.93265625 8.97183594 -4.9278125 9.56867188 -5.953125 10.18359375 C-6.95859375 10.78300781 -7.9640625 11.38242187 -9 12 C-10.73695907 13.13398614 -12.46703054 14.27864875 -14.1875 15.4375 C-15.29158203 16.17806641 -15.29158203 16.17806641 -16.41796875 16.93359375 C-16.94003906 17.28550781 -17.46210938 17.63742187 -18 18 C-18.33 16.35 -18.66 14.7 -19 13 C-16.9587948 11.58266464 -14.91705002 10.16611729 -12.875 8.75 C-12.30523437 8.35425781 -11.73546875 7.95851563 -11.1484375 7.55078125 C-7.45849183 4.992978 -3.74271758 2.479977 0 0 Z " fill="#46187A" transform="translate(489,480)"/>
<path d="M0 0 C0.99 0.33 1.98 0.66 3 1 C3 4.96 3 8.92 3 13 C2.34 13 1.68 13 1 13 C0.83564453 14.03060547 0.83564453 14.03060547 0.66796875 15.08203125 C0.43013672 16.43361328 0.43013672 16.43361328 0.1875 17.8125 C0.03667969 18.70582031 -0.11414063 19.59914063 -0.26953125 20.51953125 C-1.0990547 23.3363622 -1.57552961 24.35629126 -4 26 C-7.13671875 26.73046875 -7.13671875 26.73046875 -10.6875 27.1875 C-11.86699219 27.34605469 -13.04648437 27.50460937 -14.26171875 27.66796875 C-15.16535156 27.77753906 -16.06898438 27.88710938 -17 28 C-17 27.34 -17 26.68 -17 26 C-16.16855469 25.69707031 -15.33710938 25.39414062 -14.48046875 25.08203125 C-12.85044922 24.45361328 -12.85044922 24.45361328 -11.1875 23.8125 C-9.56908203 23.20341797 -9.56908203 23.20341797 -7.91796875 22.58203125 C-4.46746972 20.71127876 -3.50462517 19.60318133 -2 16 C-1.40430518 13.24309746 -1.08575569 10.492758 -0.8125 7.6875 C-0.73064453 6.94693359 -0.64878906 6.20636719 -0.56445312 5.44335938 C-0.36557412 3.63005077 -0.18130173 1.81515031 0 0 Z " fill="#442379" transform="translate(490,600)"/>
<path d="M0 0 C1.73056641 0.03867187 1.73056641 0.03867187 3.49609375 0.078125 C6.98772967 0.26255715 10.31550515 0.61102421 13.75 1.25 C13.42 1.91 13.09 2.57 12.75 3.25 C13.41 3.91 14.07 4.57 14.75 5.25 C12.06222198 5.3044207 9.37556788 5.34387266 6.6875 5.375 C5.93533203 5.39175781 5.18316406 5.40851562 4.40820312 5.42578125 C-0.54327709 5.46865121 -4.55414451 4.83399375 -9.25 3.25 C-6.59792417 -0.29855217 -4.25759797 -0.09901391 0 0 Z " fill="#310768" transform="translate(594.25,724.75)"/>
<path d="M0 0 C0.66 0 1.32 0 2 0 C1.42655063 2.86724686 1.1385485 3.8614515 -1 6 C-0.01 6.66 0.98 7.32 2 8 C2 8.99 2 9.98 2 11 C2.66 11 3.32 11 4 11 C4.061875 10.38125 4.12375 9.7625 4.1875 9.125 C5 7 5 7 7.1875 5.75 C10.24032669 4.93591288 12.85417035 4.85368234 16 5 C13.61077708 6.19461146 11.43692785 7.18018309 8.875 8 C5.45657854 10.37803232 5.40441044 11.24034283 4.625 15.1875 C4.39142351 16.78818595 4.17499514 18.39185505 4 20 C3.34 20 2.68 20 2 20 C1.92523437 19.31292969 1.85046875 18.62585938 1.7734375 17.91796875 C1.37125192 15.1618146 0.89799262 12.63865131 0 10 C-3.45130521 7.46904285 -6.79676519 6.61812277 -11 6 C-11 5.67 -11 5.34 -11 5 C-10.28972656 4.80664062 -9.57945312 4.61328125 -8.84765625 4.4140625 C-7.92855469 4.15367187 -7.00945313 3.89328125 -6.0625 3.625 C-4.68771484 3.24214844 -4.68771484 3.24214844 -3.28515625 2.8515625 C-0.83254913 2.23339896 -0.83254913 2.23339896 0 0 Z " fill="#4B2982" transform="translate(746,660)"/>
<path d="M0 0 C-2.31 0.66 -4.62 1.32 -7 2 C-7.33 3.32 -7.66 4.64 -8 6 C-10.10277123 6.22197585 -12.20732302 6.42713637 -14.3125 6.625 C-15.48425781 6.74101563 -16.65601563 6.85703125 -17.86328125 6.9765625 C-21 7 -21 7 -24 5 C-23.67 4.67 -23.34 4.34 -23 4 C-24.32 3.34 -25.64 2.68 -27 2 C-25.92621094 1.86722656 -24.85242188 1.73445312 -23.74609375 1.59765625 C-22.30989167 1.41930436 -20.87369399 1.24091705 -19.4375 1.0625 C-18.73302734 0.97548828 -18.02855469 0.88847656 -17.30273438 0.79882812 C-13.90088373 0.37555639 -10.51428688 -0.07442379 -7.125 -0.59375 C-4.29214218 -0.96202152 -2.64872315 -0.95354033 0 0 Z " fill="#552988" transform="translate(673,723)"/>
<path d="M0 0 C1.32 0.33 2.64 0.66 4 1 C7.0556177 12.4487307 8.60307549 22.18603065 7 34 C6.67 34 6.34 34 6 34 C5.89042969 33.23558594 5.78085937 32.47117187 5.66796875 31.68359375 C4.56076627 24.20322575 3.21164311 16.81288243 1.68359375 9.41015625 C1.05634837 6.28109789 0.50509036 3.15080178 0 0 Z " fill="#503486" transform="translate(873,637)"/>
<path d="M0 0 C3.38524596 0.85371363 6.69332367 1.88225025 10 3 C9.01 3.495 9.01 3.495 8 4 C8 4.99 8 5.98 8 7 C1.7945858 6.51679152 -3.99945246 5.66681876 -10 4 C-10 3.34 -10 2.68 -10 2 C-6.18991922 -0.54005385 -4.54901828 -0.3610332 0 0 Z " fill="#441478" transform="translate(577,721)"/>
<path d="M0 0 C1.29292969 -0.00257813 2.58585938 -0.00515625 3.91796875 -0.0078125 C7.8125 0.125 7.8125 0.125 11.11669922 0.61352539 C14.71735972 1.11183321 18.20828992 1.32842458 21.83984375 1.44140625 C23.12568359 1.48330078 24.41152344 1.52519531 25.73632812 1.56835938 C27.07421625 1.608157 28.41210691 1.64786951 29.75 1.6875 C31.11524562 1.73076654 32.48048018 1.77438321 33.84570312 1.81835938 C37.16787652 1.92401153 40.49011946 2.02611395 43.8125 2.125 C43.8125 2.455 43.8125 2.785 43.8125 3.125 C35.8925 3.455 27.9725 3.785 19.8125 4.125 C19.8125 4.455 19.8125 4.785 19.8125 5.125 C16.8425 5.125 13.8725 5.125 10.8125 5.125 C11.4725 4.465 12.1325 3.805 12.8125 3.125 C7.76247778 2.08909801 2.93833611 2.02248328 -2.1875 2.125 C-2.1875 2.455 -2.1875 2.785 -2.1875 3.125 C-4.4975 3.125 -6.8075 3.125 -9.1875 3.125 C-9.1875 2.465 -9.1875 1.805 -9.1875 1.125 C-6.16752674 -0.38498663 -3.35707841 -0.00662799 0 0 Z " fill="#684396" transform="translate(594.1875,723.875)"/>
<path d="M0 0 C0.495 0.99 0.495 0.99 1 2 C-1.31 2.33 -3.62 2.66 -6 3 C-6 3.33 -6 3.66 -6 4 C-3.69 4.33 -1.38 4.66 1 5 C1 5.33 1 5.66 1 6 C-2.3 6 -5.6 6 -9 6 C-9 5.34 -9 4.68 -9 4 C-11.29160319 3.97307516 -13.58329546 3.95363876 -15.875 3.9375 C-17.78925781 3.92009766 -17.78925781 3.92009766 -19.7421875 3.90234375 C-22.88664652 3.76823431 -22.88664652 3.76823431 -25 5 C-26.66666667 5 -28.33333333 5 -30 5 C-30.61617187 5.16371094 -31.23234375 5.32742188 -31.8671875 5.49609375 C-34.23340999 6.05514632 -36.32229661 6.09820152 -38.75 6.0625 C-39.54921875 6.05347656 -40.3484375 6.04445313 -41.171875 6.03515625 C-41.77515625 6.02355469 -42.3784375 6.01195312 -43 6 C-39.78766123 3.85844082 -38.27191593 3.59934188 -34.51171875 3.18359375 C-33.41843262 3.05960205 -32.32514648 2.93561035 -31.19873047 2.80786133 C-29.46067139 2.62453247 -29.46067139 2.62453247 -27.6875 2.4375 C-26.51590332 2.30819092 -25.34430664 2.17888184 -24.13720703 2.0456543 C-16.10200536 1.17555452 -8.07234277 0.42563262 0 0 Z " fill="#694890" transform="translate(624,704)"/>
<path d="M0 0 C0.33 0 0.66 0 1 0 C1.33 1.65 1.66 3.3 2 5 C2.33 5 2.66 5 3 5 C3.33 15.23 3.66 25.46 4 36 C3.01 35.67 2.02 35.34 1 35 C-0.4865696 31.47825216 -0.11306045 27.58674886 -0.09765625 23.828125 C-0.0962413 23.1457074 -0.09482635 22.46328979 -0.09336853 21.76019287 C-0.08779084 19.59008316 -0.07524254 17.4200783 -0.0625 15.25 C-0.05748211 13.77474108 -0.05291971 12.29948053 -0.04882812 10.82421875 C-0.03782875 7.21611202 -0.02057953 3.60806625 0 0 Z " fill="#7E6CA9" transform="translate(367,685)"/>
<path d="M0 0 C0.99 0.33 1.98 0.66 3 1 C2.95875 1.845625 2.9175 2.69125 2.875 3.5625 C3.01308815 7.35992403 3.82027042 10.39527073 5 14 C5.309375 14.94875 5.61875 15.8975 5.9375 16.875 C6.288125 17.57625 6.63875 18.2775 7 19 C7.99 19.33 8.98 19.66 10 20 C9.649375 18.96875 9.29875 17.9375 8.9375 16.875 C8.00486377 13.0201036 8.07359079 10.79827774 9 7 C9.33 7 9.66 7 10 7 C11.17670913 11.55974788 11.6935235 16.32547147 11 21 C9 23.0625 9 23.0625 7 24 C2.85769649 16.8580974 0 8.34692134 0 0 Z " fill="#A46060" transform="translate(586,641)"/>
<path d="M0 0 C1.65 0.99 3.3 1.98 5 3 C0.88380164 7.91935902 -3.40410362 12.52647956 -8 17 C-8.66 16.67 -9.32 16.34 -10 16 C-6.78655405 10.57998782 -3.55873262 5.2012246 0 0 Z " fill="#FD9937" transform="translate(649,674)"/>
<path d="M0 0 C0.144375 0.598125 0.28875 1.19625 0.4375 1.8125 C0.8872439 3.56150404 1.42892341 5.28677023 2 7 C1.07421875 9.99609375 1.07421875 9.99609375 -0.3125 13.4375 C-0.76238281 14.57058594 -1.21226562 15.70367188 -1.67578125 16.87109375 C-2.70587919 19.30504198 -3.77551897 21.66026395 -5 24 C-5 23.01 -5 22.02 -5 21 C-5.66 21 -6.32 21 -7 21 C-6.26951699 16.31196344 -4.63363115 12.09114445 -2.9375 7.6875 C-2.51500977 6.57665039 -2.51500977 6.57665039 -2.08398438 5.44335938 C-1.39281425 3.62757345 -0.69688311 1.81360101 0 0 Z " fill="#4C217F" transform="translate(388,595)"/>
<path d="M0 0 C0.66 1.32 1.32 2.64 2 4 C-1.3810038 8.13621084 -4.66590534 11.81316569 -9 15 C-9.66 13.68 -10.32 12.36 -11 11 C-7.37 7.37 -3.74 3.74 0 0 Z " fill="#4E2581" transform="translate(448,511)"/>
<path d="M0 0 C0.33 0 0.66 0 1 0 C1.16821105 2.5832412 1.33462517 5.16657699 1.5 7.75 C1.54769531 8.47960937 1.59539063 9.20921875 1.64453125 9.9609375 C2.71837297 26.8355931 2.71837297 26.8355931 -1 32 C-2.485 32.495 -2.485 32.495 -4 33 C-3.79503906 32.20980469 -3.59007812 31.41960938 -3.37890625 30.60546875 C-0.93961001 20.39310411 -0.32352599 10.46439246 0 0 Z " fill="#945E87" transform="translate(659,629)"/>
<path d="M0 0 C3.25326479 3.16289633 6.36725392 6.29465367 9 10 C9 10.99 9 11.98 9 13 C3.34746692 11.62968895 0.4886459 7.32310587 -3 3 C-2.67 2.34 -2.34 1.68 -2 1 C-1.34 1.33 -0.68 1.66 0 2 C0 1.34 0 0.68 0 0 Z " fill="#FA7F27" transform="translate(603,674)"/>
<path d="M0 0 C0.66 0.33 1.32 0.66 2 1 C1.73445312 1.49628906 1.46890625 1.99257813 1.1953125 2.50390625 C0.66550781 3.52291016 0.66550781 3.52291016 0.125 4.5625 C-0.22304688 5.22378906 -0.57109375 5.88507812 -0.9296875 6.56640625 C-3.67455458 12.80747264 -4.36532676 18.72386465 -4.625 25.4375 C-4.68300781 26.67790039 -4.68300781 26.67790039 -4.7421875 27.94335938 C-4.83553092 29.96191073 -4.91880961 31.98092331 -5 34 C-5.33 34 -5.66 34 -6 34 C-6.06058594 33.05898438 -6.12117187 32.11796875 -6.18359375 31.1484375 C-6.30927734 29.28058594 -6.30927734 29.28058594 -6.4375 27.375 C-6.51871094 26.14523437 -6.59992187 24.91546875 -6.68359375 23.6484375 C-6.89930868 20.07373951 -6.89930868 20.07373951 -7.74609375 16.96484375 C-8.09809731 12.85452525 -6.6689657 10.72202567 -4.625 7.1875 C-3.97789062 6.04667969 -3.33078125 4.90585937 -2.6640625 3.73046875 C-1 1 -1 1 0 0 Z " fill="#EBD4A5" transform="translate(627,653)"/>
<path d="M0 0 C1.98 0.66 3.96 1.32 6 2 C6 2.66 6 3.32 6 4 C6.928125 3.7215625 6.928125 3.7215625 7.875 3.4375 C10 3 10 3 12 4 C12 4.99 12 5.98 12 7 C9.50935112 7.68707555 7.62113708 8 5 8 C4.01 9.32 3.02 10.64 2 12 C1.34 8.04 0.68 4.08 0 0 Z " fill="#F3D49F" transform="translate(630,656)"/>
<path d="M0 0 C3.68266103 0.59950296 7.34543185 1.24758891 11 2 C10.34 2.66 9.68 3.32 9 4 C9 4.99 9 5.98 9 7 C3.99109914 6.38487182 -1.00632136 5.7282448 -6 5 C-6 4.67 -6 4.34 -6 4 C-3.69 3.34 -1.38 2.68 1 2 C0.67 1.34 0.34 0.68 0 0 Z " fill="#4C2180" transform="translate(663,708)"/>
<path d="M0 0 C0.98226562 0.00257813 1.96453125 0.00515625 2.9765625 0.0078125 C3.95367188 0.00523437 4.93078125 0.00265625 5.9375 0 C8.6015625 0.1328125 8.6015625 0.1328125 11.6015625 1.1328125 C11.6015625 1.7928125 11.6015625 2.4528125 11.6015625 3.1328125 C7.73432619 4.39863469 3.87004988 4.244689 -0.1484375 4.1953125 C-0.84582031 4.19080078 -1.54320312 4.18628906 -2.26171875 4.18164062 C-3.97399553 4.1699127 -5.68622783 4.15197903 -7.3984375 4.1328125 C-6.7590625 3.6584375 -6.1196875 3.1840625 -5.4609375 2.6953125 C-2.05320275 0.11369527 -2.05320275 0.11369527 0 0 Z " fill="#3D1374" transform="translate(603.3984375,706.8671875)"/>
<path d="M0 0 C1.75 1.5 1.75 1.5 3 3 C3 3.33 3 3.66 3 4 C-0.18675129 4.82238743 -3.28468624 5.14182133 -6.5625 5.25 C-7.67818359 5.28867187 -7.67818359 5.28867187 -8.81640625 5.328125 C-11.5537863 4.91678345 -12.92915653 3.78440026 -15 2 C-13.25364835 1.46706165 -11.50272348 0.94909337 -9.75 0.4375 C-8.77546875 0.14746094 -7.8009375 -0.14257812 -6.796875 -0.44140625 C-4.00635479 -0.99873082 -2.61590932 -1.02183958 0 0 Z " fill="#572E8D" transform="translate(580,447)"/>
<path d="M0 0 C0 0.99 0 1.98 0 3 C-1.74635165 3.53293835 -3.49727652 4.05090663 -5.25 4.5625 C-6.22453125 4.85253906 -7.1990625 5.14257812 -8.203125 5.44140625 C-10.96243932 5.99249836 -12.3912824 5.93789609 -15 5 C-15 4.01 -15 3.02 -15 2 C-14.113125 1.855625 -13.22625 1.71125 -12.3125 1.5625 C-10.32655009 1.22526322 -8.34466536 0.85957115 -6.375 0.4375 C-4 0 -4 0 0 0 Z " fill="#340D6B" transform="translate(585,711)"/>
<path d="M0 0 C-0.99 0 -1.98 0 -3 0 C-2.67 0.33 -2.34 0.66 -2 1 C-0.53674562 0.80470509 0.92120981 0.56891283 2.375 0.3125 C4.83203125 -0.0078125 4.83203125 -0.0078125 7 0 C9.0625 1.9375 9.0625 1.9375 10 4 C6.77463248 5.7372036 5.31777964 6.06482258 1.66796875 5.3203125 C0.51941406 4.92585937 -0.62914062 4.53140625 -1.8125 4.125 C-3.55466797 3.54105469 -3.55466797 3.54105469 -5.33203125 2.9453125 C-6.21246094 2.63335938 -7.09289062 2.32140625 -8 2 C-8 1.34 -8 0.68 -8 0 C-4.94736336 -0.98120464 -3.05263664 -0.98120464 0 0 Z " fill="#542C86" transform="translate(476,626)"/>
<path d="M0 0 C4.92249987 0.46148436 9.27737682 2.80390169 13 6 C13 6.99 13 7.98 13 9 C8.01756253 8.52548215 4.8897253 7.16605547 1 4 C0.125 1.75 0.125 1.75 0 0 Z " fill="#401672" transform="translate(742,470)"/>
<path d="M0 0 C3 0.125 3 0.125 4 1.125 C4.125 3.625 4.125 3.625 4 6.125 C3 7.125 3 7.125 0 7.25 C-3 7.125 -3 7.125 -4 6.125 C-4.125 3.625 -4.125 3.625 -4 1.125 C-3 0.125 -3 0.125 0 0 Z " fill="#431D78" transform="translate(727,574.875)"/>
<path d="M0 0 C2.625 0.375 2.625 0.375 5 1 C5.625 3.375 5.625 3.375 6 6 C5.34 6.66 4.68 7.32 4 8 C1.375 7.625 1.375 7.625 -1 7 C-1.625 4.625 -1.625 4.625 -2 2 C-1.34 1.34 -0.68 0.68 0 0 Z " fill="#481F7E" transform="translate(529,551)"/>
<path d="M0 0 C0.66 0 1.32 0 2 0 C2.53341184 1.57914015 3.05125763 3.16354387 3.5625 4.75 C3.85253906 5.63171875 4.14257812 6.5134375 4.44140625 7.421875 C5.01697435 10.07834316 4.89248371 11.47031106 4 14 C2.68 14 1.36 14 0 14 C0 9.38 0 4.76 0 0 Z " fill="#35076E" transform="translate(628,491)"/>
<path d="M0 0 C5.41798672 0.69165788 10.6822785 1.75799248 16 3 C16 3.99 16 4.98 16 6 C11.69512128 6.92247401 8.27664906 7.16635883 4 6 C3.34 5.01 2.68 4.02 2 3 C2.33 2.34 2.66 1.68 3 1 C2.01 0.67 1.02 0.34 0 0 Z " fill="#56298D" transform="translate(669,445)"/>
<path d="M0 0 C0.33 0 0.66 0 1 0 C1.0543965 2.37531394 1.09385864 4.74935883 1.125 7.125 C1.14175781 7.79015625 1.15851562 8.4553125 1.17578125 9.140625 C1.21847278 13.49516056 0.59996217 16.95600114 -1 21 C-1.66 21 -2.32 21 -3 21 C-3.22174933 19.54364629 -3.42698698 18.08477044 -3.625 16.625 C-3.74101563 15.81289063 -3.85703125 15.00078125 -3.9765625 14.1640625 C-3.98429688 13.44992187 -3.99203125 12.73578125 -4 12 C-3.34 11.34 -2.68 10.68 -2 10 C-1.67 10.33 -1.34 10.66 -1 11 C-0.67 7.37 -0.34 3.74 0 0 Z " fill="#653D8E" transform="translate(565,724)"/>
<path d="M0 0 C0.33 0 0.66 0 1 0 C1.33 11.55 1.66 23.1 2 35 C0.515 35.495 0.515 35.495 -1 36 C-0.67 24.12 -0.34 12.24 0 0 Z " fill="#584390" transform="translate(881,685)"/>
<path d="M0 0 C0.66 0 1.32 0 2 0 C2 4.95 2 9.9 2 15 C2.66 15 3.32 15 4 15 C3.67 20.94 3.34 26.88 3 33 C2.67 33 2.34 33 2 33 C1.34 22.11 0.68 11.22 0 0 Z " fill="#562C7E" transform="translate(684,723)"/>
<path d="M0 0 C0.66 0.33 1.32 0.66 2 1 C1.20722656 1.97839844 1.20722656 1.97839844 0.3984375 2.9765625 C-1.59850325 5.59031892 -3.42232344 8.11190356 -5 11 C-4.7344511 14.47574644 -4.7344511 14.47574644 -3 17 C-2.67 17.66 -2.34 18.32 -2 19 C-2.66 19.66 -3.32 20.32 -4 21 C-4.67595315 19.58774074 -5.34040059 18.16997095 -6 16.75 C-6.37125 15.96109375 -6.7425 15.1721875 -7.125 14.359375 C-8 12 -8 12 -8 8 C-5.625 5.25 -5.625 5.25 -3 3 C-2.34 3 -1.68 3 -1 3 C-0.67 2.01 -0.34 1.02 0 0 Z " fill="#3E0D72" transform="translate(659,587)"/>
<path d="M0 0 C-1.07401108 2.91517292 -1.77810176 4.77810176 -4 7 C-6.19291082 7.45662153 -8.40585889 7.820412 -10.625 8.125 C-12.40777344 8.37636719 -12.40777344 8.37636719 -14.2265625 8.6328125 C-15.14179688 8.75398437 -16.05703125 8.87515625 -17 9 C-17 8.34 -17 7.68 -17 7 C-16.16855469 6.66226563 -15.33710938 6.32453125 -14.48046875 5.9765625 C-13.39378906 5.53054688 -12.30710937 5.08453125 -11.1875 4.625 C-10.10855469 4.18414063 -9.02960938 3.74328125 -7.91796875 3.2890625 C-0.47272727 0 -0.47272727 0 0 0 Z " fill="#3A1272" transform="translate(490,619)"/>
<path d="M0 0 C1.18464844 -0.00257813 2.36929688 -0.00515625 3.58984375 -0.0078125 C6.83785743 0.1164085 9.87453717 0.51174303 13.0625 1.125 C13.0625 1.455 13.0625 1.785 13.0625 2.125 C7.7825 2.125 2.5025 2.125 -2.9375 2.125 C-2.9375 2.455 -2.9375 2.785 -2.9375 3.125 C-6.9902516 4.10748524 -10.77611737 4.20659574 -14.9375 4.125 C-11.03518699 -0.59885259 -5.74727167 -0.0124805 0 0 Z " fill="#553386" transform="translate(651.9375,442.875)"/>
<path d="M0 0 C0.97066406 -0.00515625 1.94132813 -0.0103125 2.94140625 -0.015625 C5.4375 0.25 5.4375 0.25 7.4375 2.25 C4.07398987 4.49234009 2.81439944 4.52098215 -1.125 4.5 C-2.09566406 4.50515625 -3.06632813 4.5103125 -4.06640625 4.515625 C-6.5625 4.25 -6.5625 4.25 -8.5625 2.25 C-5.19898987 0.00765991 -3.93939944 -0.02098215 0 0 Z " fill="#3A0E6E" transform="translate(657.5625,707.75)"/>
<path d="M0 0 C0.66 0.33 1.32 0.66 2 1 C2 2.32 2 3.64 2 5 C-0.31 6.32 -2.62 7.64 -5 9 C-6.32 8.01 -7.64 7.02 -9 6 C-6.03 4.02 -3.06 2.04 0 0 Z " fill="#4B1F80" transform="translate(489,480)"/>
<path d="M0 0 C0.33 0 0.66 0 1 0 C1.67258667 2.33163378 2.33847444 4.6652039 3 7 C3.20625 7.721875 3.4125 8.44375 3.625 9.1875 C4 11 4 11 4 15 C0.21165605 13.73721868 -0.22011278 12.47887048 -2 9 C-2.75 6.8125 -2.75 6.8125 -3 5 C-2.67 4.34 -2.34 3.68 -2 3 C-1.34 3 -0.68 3 0 3 C0 2.01 0 1.02 0 0 Z " fill="#573687" transform="translate(493,610)"/>
<path d="M0 0 C0.66 0 1.32 0 2 0 C0.92204275 8.92934736 -1.50361996 16.72612356 -5 25 C-7 22 -7 22 -7 20 C-6.34 19.34 -5.68 18.68 -5 18 C-2.03897706 12.20133008 -0.98456885 6.40548912 0 0 Z " fill="#712A64" transform="translate(668,637)"/>
<path d="M0 0 C1.17949219 0.11085938 2.35898437 0.22171875 3.57421875 0.3359375 C4.47785156 0.43132813 5.38148438 0.52671875 6.3125 0.625 C4.70691516 2.55036938 3.83480522 3.53574167 1.31958008 3.96557617 C0.58118896 3.94986572 -0.15720215 3.93415527 -0.91796875 3.91796875 C-1.72041016 3.90830078 -2.52285156 3.89863281 -3.34960938 3.88867188 C-4.18298828 3.86353516 -5.01636719 3.83839844 -5.875 3.8125 C-6.71998047 3.79896484 -7.56496094 3.78542969 -8.43554688 3.77148438 C-10.51980384 3.73615799 -12.60373277 3.68235139 -14.6875 3.625 C-14.6875 3.295 -14.6875 2.965 -14.6875 2.625 C-13.924375 2.50125 -13.16125 2.3775 -12.375 2.25 C-1.89375 -0.1875 -1.89375 -0.1875 0 0 Z " fill="#44147A" transform="translate(644.6875,706.375)"/>
<path d="M0 0 C-1.57046743 1.06096463 -3.15694517 2.09826235 -4.75 3.125 C-5.63171875 3.70507812 -6.5134375 4.28515625 -7.421875 4.8828125 C-10 6 -10 6 -12.328125 5.1796875 C-12.87984375 4.79039062 -13.4315625 4.40109375 -14 4 C-11.56681569 0.85713694 -9.73612972 -0.29300255 -5.875 -0.8125 C-2 -1 -2 -1 0 0 Z " fill="#411579" transform="translate(504,477)"/>
<path d="M0 0 C-2.94385647 3.22422376 -5.00365185 3.94565374 -9.4375 4.1875 C-12.69506736 4.01604909 -14.3105791 3.72122938 -17 2 C-11.35600642 -0.44064587 -6.02248522 -0.19289099 0 0 Z " fill="#451880" transform="translate(573,450)"/>
<path d="M0 0 C1.28197266 -0.03867187 1.28197266 -0.03867187 2.58984375 -0.078125 C5.52394478 0.31123438 6.86950201 1.31649829 9.0625 3.25 C5.67176276 4.1541966 2.36717897 4.39892391 -1.125 4.5 C-1.98480469 4.52578125 -2.84460938 4.5515625 -3.73046875 4.578125 C-4.45878906 4.46984375 -5.18710937 4.3615625 -5.9375 4.25 C-6.5975 3.26 -7.2575 2.27 -7.9375 1.25 C-5.04829306 0.28693102 -3.01502119 0.0544064 0 0 Z " fill="#2F086A" transform="translate(597.9375,443.75)"/>
<path d="M0 0 C0 0.99 0 1.98 0 3 C-5.52677733 3.19392201 -9.75614911 2.7479503 -15 1 C-15 0.67 -15 0.34 -15 0 C-9.65370398 -1.0024305 -5.37625234 -0.84888195 0 0 Z " fill="#3C146E" transform="translate(600,727)"/>
<path d="M0 0 C2.93200474 2.85276137 5.64315404 5.65079784 8 9 C4.80366562 9 3.65903784 8.66189865 1 7 C-2 3.57142857 -2 3.57142857 -2 1 C-1.34 0.67 -0.68 0.34 0 0 Z " fill="#4E1E84" transform="translate(820,529)"/>
<path d="M0 0 C-0.598125 0.268125 -1.19625 0.53625 -1.8125 0.8125 C-4.03033235 1.88236968 -4.03033235 1.88236968 -5.5625 3.5625 C-8.0616346 6.0616346 -10.23237315 6.00393853 -13.6875 6.0625 C-14.780625 6.041875 -15.87375 6.02125 -17 6 C-15.68 5.67 -14.36 5.34 -13 5 C-13 4.34 -13 3.68 -13 3 C-13.66 2.67 -14.32 2.34 -15 2 C-9.92523206 0.73694665 -5.27203646 -0.27036084 0 0 Z " fill="#330969" transform="translate(679,722)"/>
<path d="M0 0 C2.64 0.33 5.28 0.66 8 1 C8.12375 1.639375 8.2475 2.27875 8.375 2.9375 C8.58125 3.618125 8.7875 4.29875 9 5 C9.66 5.33 10.32 5.66 11 6 C7.7 5.34 4.4 4.68 1 4 C0.67 2.68 0.34 1.36 0 0 Z " fill="#401477" transform="translate(698,453)"/>
<path d="M0 0 C0.33 0.99 0.66 1.98 1 3 C1.66 3.66 2.32 4.32 3 5 C1.625 7.5 1.625 7.5 0 10 C-0.66 10 -1.32 10 -2 10 C-2.33 9.01 -2.66 8.02 -3 7 C-4.49985609 5.33289654 -4.49985609 5.33289654 -6 4 C-2.25 0 -2.25 0 0 0 Z " fill="#DFD2E9" transform="translate(750,661)"/>
<path d="M0 0 C-2.38922292 1.19461146 -4.56307215 2.18018309 -7.125 3 C-10.54342146 5.37803232 -10.59558956 6.24034283 -11.375 10.1875 C-11.60857649 11.78818595 -11.82500486 13.39185505 -12 15 C-12.66 15 -13.32 15 -14 15 C-14.31241757 9.79304044 -13.95069371 6.37516653 -11 2 C-7.3610752 -0.16368502 -4.17168256 -0.19403175 0 0 Z " fill="#351179" transform="translate(762,665)"/>
<path d="M0 0 C0.99 0.33 1.98 0.66 3 1 C1.55746343 4.36591866 -0.33264727 6.51047079 -3 9 C-3.99 8.67 -4.98 8.34 -6 8 C-5.66354211 4.85972637 -4.94763914 3.94901705 -2.625 1.6875 C-1.75875 1.130625 -0.8925 0.57375 0 0 Z " fill="#350E6E" transform="translate(454,506)"/>
<path d="M0 0 C-2.6598561 3.44216672 -5.90288286 3.99504674 -10 5 C-10.33 3.68 -10.66 2.36 -11 1 C-7.2297564 -1.56376565 -4.32597804 -0.83191885 0 0 Z " fill="#310C64" transform="translate(520,468)"/>
<path d="M0 0 C-2 4 -4 8 -6 12 C-6.33 12 -6.66 12 -7 12 C-7.36363636 4.72727273 -7.36363636 4.72727273 -5.75 1.5 C-4 0 -4 0 0 0 Z " fill="#3B1477" transform="translate(500,630)"/>
<path d="M0 0 C0.66 0 1.32 0 2 0 C3.49821059 3.37097383 4 5.20442119 4 9 C2.35 9 0.7 9 -1 9 C-0.67 6.03 -0.34 3.06 0 0 Z " fill="#FB7434" transform="translate(627,617)"/>
<path d="M0 0 C0.66 0 1.32 0 2 0 C2.33 1.32 2.66 2.64 3 4 C-2.625 9 -2.625 9 -6 9 C-4.4722133 5.56247993 -2.49818944 2.81046312 0 0 Z " fill="#350E6C" transform="translate(436,523)"/>
<path d="M0 0 C0 0.33 0 0.66 0 1 C-4.16180259 2.30566356 -7.64958426 3.1175788 -12 3 C-12.60972656 3.16242187 -13.21945312 3.32484375 -13.84765625 3.4921875 C-16.22215505 4.05241408 -18.31407385 4.09832244 -20.75 4.0625 C-21.54921875 4.05347656 -22.3484375 4.04445313 -23.171875 4.03515625 C-23.77515625 4.02355469 -24.3784375 4.01195312 -25 4 C-18.21565925 -0.52289383 -8.01151891 -0.32046076 0 0 Z " fill="#6B4598" transform="translate(606,706)"/>
<path d="M0 0 C1.65 0.99 3.3 1.98 5 3 C3.875 5 3.875 5 2 7 C-1.1875 7.25 -1.1875 7.25 -4 7 C-2.68 4.69 -1.36 2.38 0 0 Z " fill="#F4954D" transform="translate(649,674)"/>
<path d="M0 0 C1.89213369 2.38573379 3.02391783 4.07175348 4 7 C3.67 7.66 3.34 8.32 3 9 C1.68 9 0.36 9 -1 9 C-2.1875 7.3125 -2.1875 7.3125 -3 5 C-1.625 2.25 -1.625 2.25 0 0 Z " fill="#E2A066" transform="translate(600,667)"/>
<path d="M0 0 C0.66 0 1.32 0 2 0 C1.52060632 4.71403788 1.03165952 8.66579301 -1 13 C-1.66 13 -2.32 13 -3 13 C-2.52060632 8.28596212 -2.03165952 4.33420699 0 0 Z " fill="#35106F" transform="translate(381,616)"/>
<path d="M0 0 C-2.57784846 2.64752004 -4.91648098 4.94432065 -8 7 C-8.66 5.68 -9.32 4.36 -10 3 C-6.86618053 -0.60389239 -4.59270471 -1.53090157 0 0 Z " fill="#4A227B" transform="translate(465,502)"/>
<path d="M0 0 C0.33 0 0.66 0 1 0 C1 3.63 1 7.26 1 11 C1.99 11.33 2.98 11.66 4 12 C3.1875 14.9375 3.1875 14.9375 2 18 C1.01 18.33 0.02 18.66 -1 19 C-0.67 12.73 -0.34 6.46 0 0 Z " fill="#F6EECB" transform="translate(634,670)"/>
<path d="M0 0 C5.445 1.485 5.445 1.485 11 3 C11 3.33 11 3.66 11 4 C9.35 4 7.7 4 6 4 C6 4.66 6 5.32 6 6 C3.03 5.505 3.03 5.505 0 5 C0 3.35 0 1.7 0 0 Z " fill="#4E2385" transform="translate(707,455)"/>
<path d="M0 0 C0.33 0 0.66 0 1 0 C1.33 5.94 1.66 11.88 2 18 C1.67 17.01 1.34 16.02 1 15 C0.34 15 -0.32 15 -1 15 C-1.66 12.69 -2.32 10.38 -3 8 C-2.34 7.67 -1.68 7.34 -1 7 C-0.59270772 4.67843403 -0.25561323 2.3431213 0 0 Z " fill="#F8F1D6" transform="translate(620,673)"/>
<path d="M0 0 C0.66 0.33 1.32 0.66 2 1 C0.60667426 4.36720387 -0.9789286 5.9859524 -4 8 C-4.66 6.68 -5.32 5.36 -6 4 C-3.94766315 1.7522025 -2.99332739 0.9977758 0 0 Z " fill="#451D7B" transform="translate(443,518)"/>
<path d="M0 0 C3.12910468 1.25164187 4.92874253 3.42801274 7.1875 5.875 C3.34869422 5.875 1.54032349 5.55141174 -1.8125 3.875 C-2.4725 2.885 -3.1325 1.895 -3.8125 0.875 C-1.8125 -0.125 -1.8125 -0.125 0 0 Z " fill="#4C1C7F" transform="translate(787.8125,498.125)"/>
<path d="M0 0 C0.99 0 1.98 0 3 0 C3.33 0.99 3.66 1.98 4 3 C3.00390625 4.82421875 3.00390625 4.82421875 1.5625 6.6875 C1.08941406 7.31011719 0.61632812 7.93273437 0.12890625 8.57421875 C-0.24363281 9.04472656 -0.61617188 9.51523437 -1 10 C-1.33 9.01 -1.66 8.02 -2 7 C-2.66 6.67 -3.32 6.34 -4 6 C-2.1875 3 -2.1875 3 0 0 Z " fill="#471C7E" transform="translate(414,550)"/>
<path d="M0 0 C0.66 1.32 1.32 2.64 2 4 C0.37660195 5.70884005 -1.29319053 7.37446717 -3 9 C-3.66 9 -4.32 9 -5 9 C-4.5206753 4.68607774 -3.2542015 2.83430453 0 0 Z " fill="#3A1270" transform="translate(420,543)"/>
<path d="M0 0 C0.66 0.66 1.32 1.32 2 2 C0 5 0 5 -2.625 5.6875 C-3.800625 5.8421875 -3.800625 5.8421875 -5 6 C-5.33 4.35 -5.66 2.7 -6 1 C-3 0 -3 0 0 0 Z " fill="#A55356" transform="translate(661,661)"/>
<path d="M0 0 C1.32 0.33 2.64 0.66 4 1 C5.28571429 9.42857143 5.28571429 9.42857143 4 14 C2.30566082 10.9530371 1.50532888 8.17178534 0.875 4.75 C0.70742188 3.85796875 0.53984375 2.9659375 0.3671875 2.046875 C0.18542969 1.03367187 0.18542969 1.03367187 0 0 Z " fill="#5B3B8D" transform="translate(873,637)"/>
<path d="M0 0 C0.33 0 0.66 0 1 0 C1.11044961 6.73742646 0.70132913 13.29980211 0 20 C-0.33 20 -0.66 20 -1 20 C-1.22224251 17.41718164 -1.42823488 14.83477813 -1.625 12.25 C-1.72167969 11.15558594 -1.72167969 11.15558594 -1.8203125 10.0390625 C-2.10381649 6.14088264 -2.27081383 3.29354678 0 0 Z " fill="#513785" transform="translate(370,670)"/>
<path d="M0 0 C0.66 0 1.32 0 2 0 C3.42944945 2.35438733 4.08661261 3.48032433 3.625 6.25 C3.41875 6.8275 3.2125 7.405 3 8 C2.01 8 1.02 8 0 8 C-1.125 6.25 -1.125 6.25 -2 4 C-1.125 1.75 -1.125 1.75 0 0 Z " fill="#432576" transform="translate(627,655)"/>
<path d="M0 0 C2.375 -0.125 2.375 -0.125 5 0 C5.66 0.66 6.32 1.32 7 2 C6.625 4.625 6.625 4.625 6 7 C1.125 3.375 1.125 3.375 0 0 Z " fill="#3B126F" transform="translate(482,630)"/>
<path d="M0 0 C2 3 2 3 1.8125 4.9375 C0.87858188 7.30821524 -0.38827939 9.03790534 -2 11 C-3.25 9.4375 -3.25 9.4375 -4 7 C-2.93237266 4.42998985 -1.53455057 2.3469597 0 0 Z " fill="#502085" transform="translate(404,565)"/>
<path d="M0 0 C2.97 0.495 2.97 0.495 6 1 C6 1.99 6 2.98 6 4 C3.47524538 5.26237731 1.68799534 5.09856404 -1.125 5.0625 C-2.03507813 5.05347656 -2.94515625 5.04445313 -3.8828125 5.03515625 C-4.58148437 5.02355469 -5.28015625 5.01195312 -6 5 C-6 4.67 -6 4.34 -6 4 C-3.69 3.34 -1.38 2.68 1 2 C0.67 1.34 0.34 0.68 0 0 Z " fill="#5A2F8C" transform="translate(663,708)"/>
<path d="M0 0 C3.48670834 1.1094072 6.77484237 2.26337666 10 4 C9.67 4.99 9.34 5.98 9 7 C6.62051228 6.82374165 5.29774151 6.30280227 3.62109375 4.59765625 C2.37884514 3.09350908 1.18623944 1.54870149 0 0 Z " fill="#3D146C" transform="translate(788,502)"/>
<path d="M0 0 C2.31 0.33 4.62 0.66 7 1 C6.01 1.33 5.02 1.66 4 2 C4.33 3.32 4.66 4.64 5 6 C2.69 5.34 0.38 4.68 -2 4 C-1.34 2.68 -0.68 1.36 0 0 Z " fill="#4F287F" transform="translate(694,451)"/>
<path d="M0 0 C1.49080078 0.29197266 1.49080078 0.29197266 3.01171875 0.58984375 C4.15060547 0.82380859 4.15060547 0.82380859 5.3125 1.0625 C5.3125 1.7225 5.3125 2.3825 5.3125 3.0625 C3.72840006 2.94762252 2.14521037 2.82015492 0.5625 2.6875 C-0.31921875 2.61789062 -1.2009375 2.54828125 -2.109375 2.4765625 C-4.67816382 2.06399945 -6.44591015 1.35089043 -8.6875 0.0625 C-5.21237282 -1.09587573 -3.55079714 -0.71015943 0 0 Z " fill="#4F2581" transform="translate(579.6875,724.9375)"/>
<path d="M0 0 C-0.99 0.495 -0.99 0.495 -2 1 C-2 1.99 -2 2.98 -2 4 C-4.64 3.67 -7.28 3.34 -10 3 C-10 2.34 -10 1.68 -10 1 C-3.71428571 -1.42857143 -3.71428571 -1.42857143 0 0 Z " fill="#D6CCE2" transform="translate(578,717)"/>
<path d="M0 0 C1.77074917 -0.02705729 3.54161711 -0.04642195 5.3125 -0.0625 C6.29863281 -0.07410156 7.28476562 -0.08570313 8.30078125 -0.09765625 C11 0 11 0 14 1 C14 1.66 14 2.32 14 3 C8.80790596 3.21192221 4.873261 2.5912689 0 1 C0 0.67 0 0.34 0 0 Z " fill="#370A6E" transform="translate(601,707)"/>
<path d="M0 0 C1.89213369 2.38573379 3.02391783 4.07175348 4 7 C2.68 7.33 1.36 7.66 0 8 C-0.99 5.69 -1.98 3.38 -3 1 C-2.01 0.67 -1.02 0.34 0 0 Z " fill="#4B1E7F" transform="translate(852,575)"/>
<path d="M0 0 C-0.99 0.33 -1.98 0.66 -3 1 C-1.68 1.99 -0.36 2.98 1 4 C-1.31 4.33 -3.62 4.66 -6 5 C-6.99 3.68 -7.98 2.36 -9 1 C-5.57367167 -0.61798838 -3.61944899 -1.34053666 0 0 Z " fill="#5C388B" transform="translate(562,451)"/>
<path d="M0 0 C1.98 0 3.96 0 6 0 C6 0.66 6 1.32 6 2 C6.99 2.66 7.98 3.32 9 4 C1.57142857 4.28571429 1.57142857 4.28571429 -2 2 C-1.34 2 -0.68 2 0 2 C0 1.34 0 0.68 0 0 Z " fill="#360C6E" transform="translate(666,446)"/>
<path d="M0 0 C2.375 0.1875 2.375 0.1875 5 1 C6.3125 3.5625 6.3125 3.5625 7 6 C5.00045254 6.04254356 2.99958364 6.04080783 1 6 C0 5 0 5 -0.0625 2.4375 C-0.041875 1.633125 -0.02125 0.82875 0 0 Z " fill="#4E297D" transform="translate(723,576)"/>
<path d="M0 0 C-6.625 2.875 -6.625 2.875 -10 4 C-10.33 5.98 -10.66 7.96 -11 10 C-11.6875 8.3125 -11.6875 8.3125 -12 6 C-10.6334099 2.81128978 -9.59939605 1.33812085 -6.5625 -0.375 C-3.88690973 -1.02758299 -2.55062538 -0.94467607 0 0 Z " fill="#BFACD6" transform="translate(762,667)"/>
<path d="M0 0 C0.99 0.99 1.98 1.98 3 3 C2.34 5.31 1.68 7.62 1 10 C0.67 9.01 0.34 8.02 0 7 C-0.66 7 -1.32 7 -2 7 C-1.125 2.25 -1.125 2.25 0 0 Z " fill="#522D8B" transform="translate(383,609)"/>
<path d="M0 0 C2.22339407 0.9727349 3.45323938 2.01888726 5 3.875 C5 4.205 5 4.535 5 4.875 C1.14354879 5.09536864 -1.49223216 4.47855101 -5 2.875 C-2.57142857 -0.16071429 -2.57142857 -0.16071429 0 0 Z " fill="#603792" transform="translate(578,446.125)"/>
<path d="M0 0 C1.2989839 0.90626784 2.58893167 1.82549537 3.875 2.75 C4.59429688 3.26046875 5.31359375 3.7709375 6.0546875 4.296875 C8.08570565 6.07503547 8.97855012 7.52701607 10 10 C9.54109375 9.66226563 9.0821875 9.32453125 8.609375 8.9765625 C4.01807574 5.63691049 4.01807574 5.63691049 -1 3 C-0.67 2.01 -0.34 1.02 0 0 Z " fill="#F9C5A8" transform="translate(612,685)"/>
<path d="M0 0 C0 0.99 0 1.98 0 3 C-2.91482778 3.80967438 -4.46113217 4.21845993 -7.3125 3.0625 C-7.869375 2.711875 -8.42625 2.36125 -9 2 C-5.62902617 0.50178941 -3.79557881 0 0 0 Z " fill="#3C1172" transform="translate(585,711)"/>
<path d="M0 0 C0.33 1.32 0.66 2.64 1 4 C2.65 4 4.3 4 6 4 C6.33 3.34 6.66 2.68 7 2 C7 3.65 7 5.3 7 7 C6.01 7 5.02 7 4 7 C4 6.34 4 5.68 4 5 C2.02 5.99 2.02 5.99 0 7 C0 4.69 0 2.38 0 0 Z " fill="#FA9B61" transform="translate(625,622)"/>
<path d="M0 0 C0.99 0.33 1.98 0.66 3 1 C2.46930939 4.82097239 1.50298434 7.06171403 -1 10 C-1.125 2.25 -1.125 2.25 0 0 Z " fill="#471976" transform="translate(399,574)"/>
<path d="M0 0 C3.91402949 1.26941497 5.79072873 2.51167694 8 6 C7.34 6.66 6.68 7.32 6 8 C5 7 4 6 3 5 C2.1646875 4.2265625 2.1646875 4.2265625 1.3125 3.4375 C0 2 0 2 0 0 Z " fill="#441A78" transform="translate(824,537)"/>
<path d="M0 0 C1.7074998 1.28062485 3.37373596 2.61767557 5 4 C5 4.66 5 5.32 5 6 C4.01 6.33 3.02 6.66 2 7 C0.4375 5.75 0.4375 5.75 -1 4 C-0.6875 1.8125 -0.6875 1.8125 0 0 Z " fill="#381068" transform="translate(815,524)"/>
<path d="M0 0 C1.875 0.625 1.875 0.625 4 2 C5.25 5.125 5.25 5.125 6 8 C5.01 8 4.02 8 3 8 C0 2.25 0 2.25 0 0 Z " fill="#572A87" transform="translate(803,512)"/>
<path d="M0 0 C0.66 0 1.32 0 2 0 C3.25664978 2.90600261 4 4.79604584 4 8 C2.68 7.34 1.36 6.68 0 6 C0 4.02 0 2.04 0 0 Z " fill="#53328A" transform="translate(628,491)"/>
<path d="M0 0 C0.99 0.99 1.98 1.98 3 3 C2.34 4.32 1.68 5.64 1 7 C-0.32 5.68 -1.64 4.36 -3 3 C-2.67 2.34 -2.34 1.68 -2 1 C-1.34 1.33 -0.68 1.66 0 2 C0 1.34 0 0.68 0 0 Z " fill="#F39347" transform="translate(603,674)"/>
<path d="M0 0 C0 0.99 0 1.98 0 3 C-1.8125 3.6875 -1.8125 3.6875 -4 4 C-5.75 2.5625 -5.75 2.5625 -7 1 C-3.375 -1.125 -3.375 -1.125 0 0 Z " fill="#FDDD9B" transform="translate(642,660)"/>
<path d="M0 0 C0.99 0.495 0.99 0.495 2 1 C3.28317892 4.84953676 3.06643637 7.94738135 3 12 C2.67 12 2.34 12 2 12 C2 10.35 2 8.7 2 7 C1.34 7 0.68 7 0 7 C0 4.69 0 2.38 0 0 Z " fill="#391275" transform="translate(873,630)"/>
<path d="M0 0 C3 1 3 1 5 4 C5 4.99 5 5.98 5 7 C3.68 6.67 2.36 6.34 1 6 C0.67 4.02 0.34 2.04 0 0 Z " fill="#3A0B6C" transform="translate(847,569)"/>
<path d="M0 0 C2.97 0.495 2.97 0.495 6 1 C4.8125 2.5 4.8125 2.5 3 4 C0.3125 4.1875 0.3125 4.1875 -2 4 C-1.34 2.68 -0.68 1.36 0 0 Z " fill="#3D146E" transform="translate(478,487)"/>
<path d="M0 0 C0 0.66 0 1.32 0 2 C0.66 2.33 1.32 2.66 2 3 C-1.38018531 4.04005702 -4.4780279 4.08004482 -8 4 C-2.7826087 0 -2.7826087 0 0 0 Z " fill="#491D83" transform="translate(504,473)"/>
<path d="M0 0 C1.32 0.66 2.64 1.32 4 2 C3.34 2 2.68 2 2 2 C2 2.66 2 3.32 2 4 C2.66 4 3.32 4 4 4 C4 4.66 4 5.32 4 6 C1.64828869 5.40138258 -0.6859378 4.73075648 -3 4 C-3.33 3.34 -3.66 2.68 -4 2 C-3.01 2 -2.02 2 -1 2 C-0.67 1.34 -0.34 0.68 0 0 Z " fill="#47207B" transform="translate(724,461)"/>
<path d="M0 0 C2.33944736 0.28730055 4.6739143 0.61936779 7 1 C7 1.33 7 1.66 7 2 C2.9472484 2.98248524 -0.83861737 3.08159574 -5 3 C-4.360625 2.690625 -3.72125 2.38125 -3.0625 2.0625 C-1.06389179 1.1654837 -1.06389179 1.1654837 0 0 Z " fill="#491688" transform="translate(594,708)"/>
<path d="M0 0 C0.99 0.99 1.98 1.98 3 3 C2.1875 5.9375 2.1875 5.9375 1 9 C0.01 9.33 -0.98 9.66 -2 10 C-1.34 6.7 -0.68 3.4 0 0 Z " fill="#A06075" transform="translate(657,652)"/>
<path d="M0 0 C0.99 0.33 1.98 0.66 3 1 C3 4.3 3 7.6 3 11 C0.60236815 8.60236815 0.65719414 7.66726502 0.375 4.375 C0.30023437 3.55773437 0.22546875 2.74046875 0.1484375 1.8984375 C0.09945312 1.27195312 0.05046875 0.64546875 0 0 Z " fill="#893C57" transform="translate(586,641)"/>
<path d="M0 0 C2.475 0.495 2.475 0.495 5 1 C6.125 4.75 6.125 4.75 5 7 C3.29115995 5.37660195 1.62553283 3.70680947 0 2 C0 1.34 0 0.68 0 0 Z " fill="#401573" transform="translate(763,482)"/>
<path d="M0 0 C-2.8125 2.0625 -2.8125 2.0625 -6 4 C-6.99 3.67 -7.98 3.34 -9 3 C-8.67 2.01 -8.34 1.02 -8 0 C-2.25 -1.125 -2.25 -1.125 0 0 Z " fill="#380D6F" transform="translate(504,477)"/>
<path d="M0 0 C0 0.66 0 1.32 0 2 C-1.98 2.33 -3.96 2.66 -6 3 C-6.33 2.01 -6.66 1.02 -7 0 C-3.86650268 -1.04449911 -3.01031744 -0.93423645 0 0 Z " fill="#3B0D75" transform="translate(556,454)"/>
<path d="M0 0 C0.99 0 1.98 0 3 0 C4.125 4.75 4.125 4.75 3 7 C2.34 7 1.68 7 1 7 C0.67 4.69 0.34 2.38 0 0 Z " fill="#542684" transform="translate(625,712)"/>
<path d="M0 0 C0.6875 1.75 0.6875 1.75 1 4 C-0.4375 6.25 -0.4375 6.25 -2 8 C-2.66 7.01 -3.32 6.02 -4 5 C-3.34 4.01 -2.68 3.02 -2 2 C-1.34 2 -0.68 2 0 2 C0 1.34 0 0.68 0 0 Z " fill="#C88562" transform="translate(599,664)"/>
<path d="M0 0 C1.61949011 2.57213134 2.04408751 3.67669159 1.625 6.75 C1.41875 7.4925 1.2125 8.235 1 9 C0.34 8.67 -0.32 8.34 -1 8 C-0.67 5.36 -0.34 2.72 0 0 Z " fill="#5D2672" transform="translate(588,610)"/>
<path d="M0 0 C2 3 2 3 2 7 C0.68 7 -0.64 7 -2 7 C-1.34 4.69 -0.68 2.38 0 0 Z " fill="#E9E2EF" transform="translate(632,545)"/>
<path d="M0 0 C-0.33 1.65 -0.66 3.3 -1 5 C-2.98 4.34 -4.96 3.68 -7 3 C-3.375 0 -3.375 0 0 0 Z " fill="#522886" transform="translate(522,464)"/>
<path d="M0 0 C1.64350079 3.28700157 2.41321669 5.47930015 3 9 C2.01 9.33 1.02 9.66 0 10 C0 6.7 0 3.4 0 0 Z " fill="#FCDFA2" transform="translate(614,650)"/>
<path d="M0 0 C0.66 0.99 1.32 1.98 2 3 C0.625 6.6875 0.625 6.6875 -1 10 C-3 7 -3 7 -3 5 C-2.34 4.34 -1.68 3.68 -1 3 C-0.67 2.01 -0.34 1.02 0 0 Z " fill="#87375D" transform="translate(664,652)"/>
<path d="M0 0 C0.66 1.32 1.32 2.64 2 4 C1.67 4.99 1.34 5.98 1 7 C-1.5625 8.1875 -1.5625 8.1875 -4 9 C-2.68 6.03 -1.36 3.06 0 0 Z " fill="#DED2E3" transform="translate(491,616)"/>
<path d="M0 0 C1.2065625 0.0309375 1.2065625 0.0309375 2.4375 0.0625 C2.4375 1.0525 2.4375 2.0425 2.4375 3.0625 C0.4575 4.0525 0.4575 4.0525 -1.5625 5.0625 C-1.5625 4.0725 -1.5625 3.0825 -1.5625 2.0625 C-2.2225 1.7325 -2.8825 1.4025 -3.5625 1.0625 C-2.5625 0.0625 -2.5625 0.0625 0 0 Z " fill="#4E2285" transform="translate(476.5625,489.9375)"/>
<path d="M0 0 C2.31 0.33 4.62 0.66 7 1 C4.94766315 3.2477975 3.99332739 4.0022242 1 5 C0.67 3.35 0.34 1.7 0 0 Z " fill="#411674" transform="translate(513,467)"/>
<path d="M0 0 C0 0.33 0 0.66 0 1 C-5.16044765 2.512545 -8.65998179 3.33500455 -14 2 C-14 1.67 -14 1.34 -14 1 C-9.23692563 0.04738513 -4.8333472 -0.08333357 0 0 Z " fill="#C3B8D6" transform="translate(619,710)"/>
<path d="M0 0 C0 0.33 0 0.66 0 1 C-4.79137588 2.6290678 -8.05632546 3.20577428 -13 2 C-13 1.67 -13 1.34 -13 1 C-8.59085217 -0.10228696 -4.51617599 -0.07654536 0 0 Z " fill="#78589F" transform="translate(606,706)"/>
<path d="M0 0 C1.98 0 3.96 0 6 0 C6 0.66 6 1.32 6 2 C3.69 2.33 1.38 2.66 -1 3 C-0.67 2.01 -0.34 1.02 0 0 Z " fill="#5E3596" transform="translate(509,626)"/>
<path d="M0 0 C0.33 0 0.66 0 1 0 C1.33 2.97 1.66 5.94 2 9 C1.34 9 0.68 9 0 9 C-1.125 2.25 -1.125 2.25 0 0 Z " fill="#5F2A82" transform="translate(668,603)"/>
<path d="M0 0 C2.01136276 2.55991624 3.62845496 5.04590299 5 8 C4.34 8.66 3.68 9.32 3 10 C0 3.375 0 3.375 0 0 Z " fill="#361162" transform="translate(652,598)"/>
<path d="M0 0 C2.625 0.9375 2.625 0.9375 5 2 C3.68 2.99 2.36 3.98 1 5 C0.01 4.34 -0.98 3.68 -2 3 C-2 2.34 -2 1.68 -2 1 C-1.34 0.67 -0.68 0.34 0 0 Z " fill="#502383" transform="translate(755,476)"/>
<path d="M0 0 C0 0.99 0 1.98 0 3 C-2.64 2.67 -5.28 2.34 -8 2 C-4.77208445 -0.1519437 -3.71599191 -0.20086443 0 0 Z " fill="#32086D" transform="translate(564,451)"/>
</svg>
